<svg xmlns="http://www.w3.org/2000/svg" width="512" height="512" viewBox="0 0 512 512" version="1.1"><path d="" stroke="none" fill="#080404" fill-rule="evenodd"/><path d="M 60.666 60.729 C 54.173 62.900, 46.851 69.659, 43.886 76.221 C 41.513 81.471, 41.498 81.729, 41.199 122.744 L 40.898 163.988 43.403 166.494 C 46.388 169.478, 48.011 169.621, 51.043 167.166 C 52.772 165.766, 53.419 163.991, 53.778 159.666 L 54.248 154 82.279 154 L 110.310 154 118.602 145.782 C 123.162 141.262, 127.705 137.243, 128.697 136.852 C 129.689 136.461, 146.475 136.112, 166 136.076 C 205.032 136.006, 204.638 135.951, 209.742 142.204 C 211.221 144.017, 214.301 147.412, 216.584 149.750 L 220.737 154 340.319 154 L 459.900 154 460.200 159.648 C 460.457 164.492, 460.898 165.593, 463.296 167.378 C 465.879 169.300, 466.298 169.343, 468.796 167.941 L 471.500 166.424 471.785 124.962 C 471.980 96.566, 471.716 82.208, 470.947 79.401 C 469.290 73.349, 463.324 66.162, 457 62.599 L 451.500 59.500 258.500 59.306 C 83.129 59.131, 65.058 59.261, 60.666 60.729 M 63.350 72.923 C 60.961 74.011, 58.095 76.437, 56.600 78.639 L 54 82.464 54 111.732 L 54 141 80.278 141 L 106.555 141 111.852 134.982 C 121.476 124.049, 119.146 124.500, 166 124.500 C 212.892 124.500, 210.862 124.106, 219.641 134.908 L 224.500 140.886 342.250 140.943 L 460 141 460 112.386 C 460 85.378, 459.885 83.567, 457.947 80.119 C 456.817 78.110, 454.263 75.348, 452.270 73.983 L 448.647 71.500 258.073 71.266 C 73.057 71.040, 67.379 71.088, 63.350 72.923 M 407.500 87.662 C 400.590 91.305, 396.044 98.185, 396.044 105 C 396.044 109.487, 398.952 115.757, 402.624 119.186 C 412.775 128.668, 429.665 123.840, 433.591 110.336 C 435.402 104.107, 434.317 98.484, 430.274 93.141 C 425.453 86.770, 414.287 84.084, 407.500 87.662 M 356.459 88.880 C 337.867 97.325, 343.773 125.231, 364.153 125.231 C 370.094 125.231, 375.411 122.573, 379.447 117.587 C 382.222 114.158, 382.500 113.155, 382.500 106.584 C 382.500 97.584, 379.947 93.194, 372.554 89.483 C 366.700 86.545, 361.988 86.368, 356.459 88.880 M 306.637 89.465 C 296.415 93.109, 291.132 105.201, 295.351 115.298 C 297.832 121.235, 306.517 126.989, 313 126.989 C 316.421 126.989, 322.141 124.752, 325.111 122.253 C 336.940 112.300, 332.558 93.217, 317.500 89.104 C 312.474 87.731, 311.401 87.767, 306.637 89.465 M 410.944 99.844 C 406.154 103.723, 409.332 112, 415.611 112 C 418.906 112, 422 108.610, 422 105 C 422 99.007, 415.641 96.041, 410.944 99.844 M 361.315 100.007 C 354.626 102.702, 356.810 113, 364.071 113 C 370.552 113, 373.416 105.045, 368.365 101.073 C 365.495 98.815, 364.608 98.680, 361.315 100.007 M 307.557 103.223 C 304.071 108.198, 307.178 114.385, 313.078 114.217 C 319.198 114.043, 322.200 107.200, 318 103 C 315.198 100.198, 309.592 100.317, 307.557 103.223 M 28 179.933 C 19.227 181.727, 10.738 188.872, 7.606 197.096 C 6.094 201.066, 5.957 207.174, 6.214 259.080 L 6.500 316.659 9.529 321.580 C 12.820 326.926, 19.929 332.331, 25.823 333.967 C 30.927 335.385, 481.073 335.385, 486.177 333.967 C 492.071 332.331, 499.180 326.926, 502.471 321.580 L 505.500 316.659 505.781 258.837 C 506.059 201.622, 506.040 200.963, 503.918 196.031 C 501.530 190.481, 495.129 184.019, 489.317 181.292 C 485.686 179.587, 474.445 179.493, 258.500 179.359 C 133.650 179.281, 29.925 179.539, 28 179.933 M 25.241 193.995 C 23.448 195.088, 21.088 197.448, 19.995 199.241 C 18.076 202.387, 18.007 204.381, 18.004 256.864 C 18 310.906, 18.013 311.251, 20.184 315.114 C 21.576 317.590, 23.867 319.725, 26.500 321 C 30.594 322.982, 32.672 323, 256 323 C 479.328 323, 481.406 322.982, 485.500 321 C 488.133 319.725, 490.424 317.590, 491.816 315.114 C 493.986 311.252, 494 310.890, 493.998 257.364 C 493.997 197.321, 494.180 198.998, 487.102 194.270 L 483.704 192 256.102 192.004 C 30.755 192.007, 28.468 192.027, 25.241 193.995 M 106.655 218.829 C 105.178 220.460, 105 224.609, 105 257.329 C 105 293.163, 105.048 294.048, 107.085 296.085 C 109.057 298.057, 110.039 298.151, 125.335 297.823 C 143.036 297.444, 146.325 296.528, 152.197 290.342 C 160.278 281.827, 160.122 266.897, 151.862 258.363 C 149.753 256.183, 149.190 255.001, 150.017 254.489 C 152.320 253.066, 154.956 245.483, 154.978 240.218 C 155.005 233.828, 152.980 228.640, 148.699 224.128 C 142.923 218.039, 139.320 217.047, 122.905 217.022 C 110.019 217.003, 108.116 217.214, 106.655 218.829 M 182.557 219.223 C 181.217 221.135, 181 226.507, 181 257.723 C 181 292.667, 181.074 294.074, 183 296 C 184.879 297.879, 186.333 298, 207.045 298 L 229.091 298 231.608 295.483 C 233.459 293.632, 233.943 292.377, 233.440 290.733 C 232.008 286.061, 231.729 286, 211.878 286 L 193 286 193 253.071 C 193 224.470, 192.794 219.936, 191.429 218.571 C 189.096 216.239, 184.405 216.583, 182.557 219.223 M 266 219.142 C 251.441 224.834, 242.402 235.788, 239.815 250.874 C 237.640 263.559, 241.250 275.100, 250.448 284.861 C 266.127 301.502, 291.594 301.980, 308.059 285.943 C 328.060 266.461, 321.808 231.893, 296.178 220.246 C 288.085 216.569, 273.908 216.050, 266 219.142 M 356.329 222.875 C 345.654 226.839, 338.676 233.250, 333.848 243.533 C 323.247 266.107, 337.056 292.090, 362.340 297.145 C 372.664 299.209, 385.895 295.421, 394.377 287.974 C 404.183 279.364, 410.319 260.319, 405 255 C 403.172 253.172, 401.667 253, 387.500 253 C 373.333 253, 371.828 253.172, 370 255 C 367.504 257.496, 367.429 261.173, 369.829 263.345 C 371.301 264.677, 373.837 265, 382.829 265 C 389.895 265, 394 265.382, 394 266.040 C 394 268.159, 389.975 274.871, 386.800 278.046 C 380.083 284.763, 367.498 287.337, 358.927 283.747 C 354.493 281.889, 348.715 276.893, 346.091 272.648 C 338.711 260.707, 343.235 243.723, 355.639 236.800 C 365.299 231.409, 375.501 232.052, 384.758 238.633 C 390.221 242.517, 392.217 242.783, 395 240 C 399.552 235.448, 395.327 229.337, 384.046 224.154 C 376.485 220.681, 363.814 220.096, 356.329 222.875 M 117 240 L 117 251 125.435 251 C 135.602 251, 138.378 250.068, 140.996 245.775 C 143.388 241.852, 143.521 238.907, 141.483 234.967 C 139.141 230.439, 135.300 229, 125.550 229 L 117 229 117 240 M 270.703 230.381 C 264.500 232.694, 259.499 236.531, 256.202 241.508 C 243.800 260.232, 257.097 285.250, 279.451 285.250 C 300.833 285.250, 314.512 262.573, 304.371 243.940 C 299.477 234.948, 291.437 229.923, 281 229.333 C 276.972 229.105, 273.056 229.504, 270.703 230.381 M 117 274.500 L 117 286 125.750 285.994 C 137.265 285.987, 141.581 284.736, 144.048 280.689 C 148.101 274.043, 145.281 266.005, 138.207 264.041 C 136.168 263.474, 130.563 263.009, 125.750 263.006 L 117 263 117 274.500 M 42.470 348.406 C 41.088 350.515, 40.931 355.726, 41.197 390.656 C 41.495 429.804, 41.540 430.587, 43.801 435.500 C 46.713 441.826, 51.130 446.449, 57.500 449.839 L 62.500 452.500 257 452.500 L 451.500 452.500 455.616 450.298 C 462.318 446.713, 465.701 443.286, 468.942 436.800 L 472 430.681 472 389.912 C 472 345.122, 472.120 346, 465.985 346 C 460.058 346, 460 346.423, 460 389.336 C 460 426.711, 459.920 428.370, 457.947 431.881 C 456.817 433.890, 454.263 436.652, 452.270 438.017 L 448.647 440.500 258.573 440.774 C 45.320 441.082, 62.684 441.688, 56.926 433.739 L 54 429.700 54 391.415 C 54 353.815, 53.616 348.648, 50.687 346.786 C 48.160 345.179, 44.054 345.988, 42.470 348.406" stroke="none" fill="#040404" fill-rule="evenodd"/></svg>